<svg id="Слой_1" data-name="Слой 1" xmlns="http://www.w3.org/2000/svg" viewBox="0 0 391 79"><defs><style>.cls-1{fill:#dc2626;}.cls-2{fill:#fff;}</style></defs><rect class="cls-1" width="391" height="79"/><path class="cls-2" d="M15.9,54V19.66H55.11v6.25H23V47.79H55.11V54Z"/><path class="cls-2" d="M58.67,54V19.66H65.8V54Z"/><path class="cls-2" d="M76.49,30.6V54H69.36V15L101.44,43.1V19.66h7.13V58.72Z"/><path class="cls-2" d="M112.14,54V19.66h39.2v6.25H119.27V29h32.07v6.25H119.27v12.5h32.07V54Z"/><path class="cls-2" d="M154.91,54V15l19.6,17.19L194.12,15V54H187V30.6L174.51,41.54,162,30.6V54Z"/><path class="cls-2" d="M197.68,54V19.66h39.21V54h-7.13V35.29H204.81V54Zm32.08-25V25.91H204.81V29Z"/><path class="cls-2" d="M251.15,54V25.91h-10.7V19.66H269v6.25h-10.7V54Z"/><path class="cls-2" d="M322.43,63.41,283.23,29h21.38V25.91H279.66V54h-7.13V19.66h39.21V35.29H301.05l32.08,28.12Z"/><path class="cls-2" d="M315.3,54V19.66h7.13V54Z"/><path class="cls-2" d="M326,54l19.6-17.19L326,19.66h10.69L351,32.16l14.26-12.5H375.9L356.29,36.85,375.9,54H365.21L351,41.54,336.69,54Z"/></svg>