<svg id="Слой_1" data-name="Слой 1" xmlns="http://www.w3.org/2000/svg" viewBox="0 0 360 48.44"><defs><style>.cls-1{fill:#dc2626;}</style></defs><path class="cls-1" d="M0,39.06V4.69H39.21v6.25H7.13V32.81H39.21v6.25Z"/><path class="cls-1" d="M42.77,39.06V4.69H49.9V39.06Z"/><path class="cls-1" d="M60.59,15.63V39.06H53.47V0L85.54,28.13V4.69h7.13V43.75Z"/><path class="cls-1" d="M96.24,39.06V4.69h39.21v6.25H103.37v3.12h32.08v6.25H103.37v12.5h32.08v6.25Z"/><path class="cls-1" d="M139,39.06V0l19.6,17.19L178.22,0V39.06h-7.13V15.63L158.61,26.56,146.14,15.63V39.06Z"/><path class="cls-1" d="M181.78,39.06V4.69H221V39.06h-7.13V20.31h-25V39.06Zm32.08-25V10.94h-25v3.12Z"/><path class="cls-1" d="M235.25,39.06V10.94h-10.7V4.69h28.52v6.25H242.38V39.06Z"/><path class="cls-1" d="M306.53,48.44l-39.2-34.38h21.38V10.94H263.76V39.06h-7.13V4.69h39.21V20.31H285.15l32.08,28.13Z"/><path class="cls-1" d="M299.41,39.06V4.69h7.12V39.06Z"/><path class="cls-1" d="M310.1,39.06l19.6-17.18L310.1,4.69h10.69l14.26,12.5,14.26-12.5H360L340.4,21.88,360,39.06H349.31l-14.26-12.5-14.26,12.5Z"/></svg>